<?xml version="1.0" encoding="UTF-8"?>
<svg xmlns="http://www.w3.org/2000/svg" viewBox="0 0 58.2 58.2">
  <g fill="#4B6CB3">
    <path d="M56,2.2v53.9H2.2V2.2h53.9M58.2,0H0v58.2h58.2V0h0Z"/>
    <path d="M27.9,30.3v6.8h-12.4v1.4h12.4v6.8h-12.4v1.4h12.4v6.8H4.5v-23.4h23.4Z"/>
    <path d="M41.3,46.5v7.1h-11v-23.4l12.4,7.1v-7.1h11v23.4l-12.4-7.1Z"/>
    <path d="M53.7,4.5h-23.4v23.4h11v-8.3h12.4v-6.8c0-4.6,0-3.4,0-8.3ZM47.2,12.8h-5.9v-1.4h5.9v1.4Z"/>
    <path d="M4.5,4.5v23.4h23.4V4.5H4.5ZM16.9,21.3h-1.4v-10.2h1.4v10.2Z"/>
  </g>
</svg>
