<?xml version="1.0" encoding="UTF-8"?>
<svg xmlns="http://www.w3.org/2000/svg" viewBox="0 0 173 51.2">
  <g fill="#4B6CB3">
    <path d="M169.6,3.4v44.3H3.4V3.4h166.1M173,0H0v51.2h173V0h0Z"/>
    <path d="M84.6,7.2h-36.9v36.9h17.3v-13h19.6v-10.8c0-7.2,0-5.4,0-13.1ZM74.4,20.2h-9.4v-2.2h9.4v2.2Z"/>
    <path d="M125.2,7.2v10.8h-19.6v2.3h19.6v10.8h-19.6v2.3h19.6v10.8h-36.9V7.2h36.9Z"/>
    <path d="M146.3,32.8v11.3h-17.3V7.2l19.6,11.3V7.2h17.3v36.9l-19.6-11.3Z"/>
    <path d="M7.2,7.2v36.9h36.9V7.2H7.2ZM26.7,33.6h-2.2v-16h2.2v16Z"/>
  </g>
</svg>
